<svg viewBox="0 0 200 200" xmlns="http://www.w3.org/2000/svg">
  <defs>
    <linearGradient id="roofGradient" x1="0%" y1="0%" x2="100%" y2="100%">
      <stop offset="0%" style="stop-color:#6366f1;stop-opacity:1" />
      <stop offset="100%" style="stop-color:#8b5cf6;stop-opacity:1" />
    </linearGradient>
    <linearGradient id="wallGradient" x1="0%" y1="0%" x2="0%" y2="100%">
      <stop offset="0%" style="stop-color:#e0e7ff;stop-opacity:1" />
      <stop offset="100%" style="stop-color:#c7d2fe;stop-opacity:1" />
    </linearGradient>
  </defs>
  
  <!-- Roof -->
  <path d="M 100 40 L 150 90 L 50 90 Z" fill="url(#roofGradient)" />
  
  <!-- Chimney -->
  <rect x="125" y="55" width="15" height="35" fill="#8b5cf6" />
  
  <!-- House body -->
  <rect x="55" y="90" width="90" height="70" fill="url(#wallGradient)" rx="2" />
  
  <!-- Door -->
  <rect x="90" y="120" width="20" height="40" fill="#6366f1" rx="2" />
  <circle cx="105" cy="140" r="1.5" fill="#fbbf24" />
  
  <!-- Windows -->
  <!-- Left window -->
  <rect x="65" y="100" width="18" height="18" fill="#60a5fa" stroke="#6366f1" stroke-width="2" rx="1" />
  <line x1="74" y1="100" x2="74" y2="118" stroke="#6366f1" stroke-width="1.5" />
  <line x1="65" y1="109" x2="83" y2="109" stroke="#6366f1" stroke-width="1.5" />
  
  <!-- Right window -->
  <rect x="117" y="100" width="18" height="18" fill="#60a5fa" stroke="#6366f1" stroke-width="2" rx="1" />
  <line x1="126" y1="100" x2="126" y2="118" stroke="#6366f1" stroke-width="1.5" />
  <line x1="117" y1="109" x2="135" y2="109" stroke="#6366f1" stroke-width="1.5" />
  
  <!-- Attic window -->
  <circle cx="100" cy="70" r="8" fill="#60a5fa" stroke="#8b5cf6" stroke-width="2" />
  <line x1="100" y1="62" x2="100" y2="78" stroke="#8b5cf6" stroke-width="1.5" />
  <line x1="92" y1="70" x2="108" y2="70" stroke="#8b5cf6" stroke-width="1.5" />
</svg>